<svg xmlns="http://www.w3.org/2000/svg" width="16" height="16" viewBox="0 0 16 16">
<style type="text/css"><![CDATA[
  .light-base{fill: #ffffff;}
]]></style>
  <path class="light-base" d="M7,10V9H8.1l1-.5a2.314,2.314,0,0,0,.7-.7A4.313,4.313,0,0,0,10,6.5a3.6,3.6,0,0,0-.2-1,3.51,3.51,0,0,0-.5-.8l-.8-.5L7.5,4h-4l-1,.2-.8.5a3.51,3.51,0,0,0-.5.8,3.6,3.6,0,0,0-.2,1,4.3,4.3,0,0,0,.2,1.2l.7.7,1,.5H4V10H3.5a3.5,3.5,0,0,1-1.4-.3A4.079,4.079,0,0,1,1,9,4.079,4.079,0,0,1,.3,7.9a3.417,3.417,0,0,1,0-2.8A4.079,4.079,0,0,1,1,4a4.079,4.079,0,0,1,1.1-.7A3.5,3.5,0,0,1,3.5,3h4a3.5,3.5,0,0,1,1.4.3A4.079,4.079,0,0,1,10,4a4.079,4.079,0,0,1,.7,1.1,3.417,3.417,0,0,1,0,2.8A4.079,4.079,0,0,1,10,9a4.079,4.079,0,0,1-1.1.7,3.5,3.5,0,0,1-1.4.3Zm5-4V7h1.1l1,.5a2.314,2.314,0,0,1,.7.7A4.313,4.313,0,0,1,15,9.5a3.6,3.6,0,0,1-.2,1,3.51,3.51,0,0,1-.5.8l-.8.5-1,.2h-4l-1-.2-.8-.5a3.51,3.51,0,0,1-.5-.8,3.6,3.6,0,0,1-.2-1,4.3,4.3,0,0,1,.2-1.2,2.314,2.314,0,0,1,.7-.7l1-.5H9V6H8.5a3.5,3.5,0,0,0-1.4.3A4.079,4.079,0,0,0,6,7a4.079,4.079,0,0,0-.7,1.1,3.4,3.4,0,0,0,0,2.8A4.079,4.079,0,0,0,6,12a4.079,4.079,0,0,0,1.1.7,3.5,3.5,0,0,0,1.4.3h4a3.5,3.5,0,0,0,1.4-.3A4.079,4.079,0,0,0,15,12a4.079,4.079,0,0,0,.7-1.1,3.4,3.4,0,0,0,0-2.8A4.079,4.079,0,0,0,15,7a4.079,4.079,0,0,0-1.1-.7A3.5,3.5,0,0,0,12.5,6Z" />
</svg>