<svg xmlns="http://www.w3.org/2000/svg" viewBox="0 0 2048 2048" width="32" height="32">
<style type="text/css"><![CDATA[
  .dark-base{fill: #dddddd;}
]]></style>
  <path class="dark-base" d="M388 128l295 768h-99l-82-215H177l-77 215H0l295-768h93zm85 472L352 273q-5-13-7-26t-4-26h-2q-5 29-13 52L207 600h266zm597-112q78 9 124 58t47 129q0 53-20 94t-54 70-80 42-95 15H768V128h219q41 0 80 10t69 32 48 55 19 79q0 66-35 113t-98 69v2zm-212-31h92q33 0 61-7t51-24 34-43 13-62q0-33-12-55t-33-34-48-18-55-5H858v248zm122 358q34 0 64-8t53-25 36-44 14-64q0-41-16-67t-42-42-59-21-69-6H858v277h122zm982 37q-47 25-99 34t-106 10q-83 0-148-28t-109-77-68-117-24-148q0-85 26-157t76-126 120-84 157-31q45 0 89 6t86 25v92q-41-23-85-33t-91-11q-69 0-122 24t-90 67-56 99-19 124q0 62 17 116t52 95 84 63 117 23q51 0 100-12t93-38v84zM124 1273q28-7 58-20t61-29 58-34 50-38h33v768h-86v-649q-13 13-35 27t-47 26-49 22-43 14v-87zm1081 82q0 71-25 120t-65 88-83 67-84 61-64 67-26 85h376v77H768v-62q0-32 10-61 14-47 45-82t68-66 78-59 73-60 54-73 21-94q0-65-37-101t-102-37q-54 0-99 27t-82 65v-92q42-40 88-56t104-17q46 0 86 13t68 40 45 64 17 86zm586 161q36 3 68 17t56 37 37 54 14 69q0 56-21 97t-58 70-84 42-98 14q-44 0-87-8t-82-32v-92q74 59 172 59 34 0 65-8t54-26 38-44 14-65q0-57-26-86t-67-43-88-14-88-2v-72q39 0 81-1t79-14 59-41 23-81q0-68-38-97t-102-29q-42 0-79 13t-69 40v-83q38-23 81-32t88-10q40 0 77 11t66 33 46 55 17 78q0 75-38 121t-110 67v3z" />
</svg>