<?xml version="1.0" standalone="no"?>
<!DOCTYPE svg PUBLIC "-//W3C//DTD SVG 20010904//EN"
 "http://www.w3.org/TR/2001/REC-SVG-20010904/DTD/svg10.dtd">
<svg version="1.0" xmlns="http://www.w3.org/2000/svg"
 width="512.000000pt" height="512.000000pt" viewBox="0 0 512.000000 512.000000"
 preserveAspectRatio="xMidYMid meet">

<g transform="translate(0.000000,512.000000) scale(0.100000,-0.100000)"
fill="#0079d6" stroke="none">

  <path d="M3070 4286 c-381 -63 -718 -313 -892 -661 -22 -44 -42 -82 -44 -84
-2 -2 -35 27 -73 65 -102 102 -223 169 -381 211 -90 24 -301 24 -389 0 -154
-42 -258 -99 -368 -201 -121 -113 -196 -232 -247 -396 -34 -108 -45 -280 -26
-408 7 -48 12 -89 12 -91 0 -2 -31 -17 -68 -33 -89 -38 -214 -122 -290 -195
-211 -202 -305 -464 -282 -783 24 -332 227 -631 529 -781 72 -36 116 -52 219
-82 l75 -21 1670 -4 c1210 -2 1692 0 1750 8 456 65 791 416 834 874 45 468
-221 870 -681 1029 -15 5 -15 10 -1 59 20 73 29 347 14 446 -82 530 -466 941
-970 1038 -111 22 -291 26 -391 10z m-28 -987 c248 -27 452 -157 587 -373 90
-146 131 -277 131 -426 0 -269 -161 -549 -398 -689 -212 -126 -484 -146 -712
-52 l-75 31 -290 -295 c-311 -315 -335 -334 -428 -335 -91 0 -170 53 -213 145
-29 62 -30 125 -4 184 15 31 104 129 310 336 l290 293 -29 70 c-130 314 -50
674 199 905 137 127 290 191 517 216 7 0 59 -4 115 -10z"/>
<path d="M2819 2972 c-127 -42 -239 -134 -294 -241 -76 -152 -71 -343 15 -486
41 -68 143 -158 217 -192 219 -100 510 -10 631 196 146 250 49 568 -215 698
-73 36 -82 38 -187 40 -86 2 -124 -1 -167 -15z"/>
</g>
</svg>
